<svg xmlns="http://www.w3.org/2000/svg" version="1.1" xmlns:xlink="http://www.w3.org/1999/xlink" width="512" height="512" x="0" y="0" viewBox="0 0 24 24" style="enable-background:new 0 0 512 512" xml:space="preserve" class=""><g><path d="M22.732 9.013a3.855 3.855 0 0 0-2.796-1.008 3.854 3.854 0 0 0-2.69 1.265l-2.438 2.68a3.629 3.629 0 0 0-2.45-.949H3.5c-1.93 0-3.5 1.57-3.5 3.5v6c0 1.93 1.57 3.5 3.5 3.5h11.181l8.333-9.532a3.895 3.895 0 0 0-.282-5.455Zm-1.967 3.469L13.318 21H3.5a.5.5 0 0 1-.5-.5v-6a.5.5 0 0 1 .5-.5h8.858a.643.643 0 0 1 .091 1.278l-5.161.737.424 2.97 5.161-.737a3.663 3.663 0 0 0 3.093-3.115l3.498-3.844a.884.884 0 0 1 1.248-.059.89.89 0 0 1 .054 1.252ZM13.999 7.5a1.5 1.5 0 1 1-3.001-.001 1.5 1.5 0 0 1 3.001.001ZM4 1.5a1.5 1.5 0 1 1 3.001.001A1.5 1.5 0 0 1 4 1.5ZM4.346 9l5.834-9h3.474L7.821 9H4.347Z" fill="#071952" opacity="1" data-original="#000000" class=""></path></g></svg>