<svg xmlns="http://www.w3.org/2000/svg" version="1.1" xmlns:xlink="http://www.w3.org/1999/xlink" width="512" height="512" x="0" y="0" viewBox="0 0 24 24" style="enable-background:new 0 0 512 512" xml:space="preserve" class=""><g><path d="M11.001 22a10 10 0 1 1 6.422-17.666 1 1 0 1 1-1.285 1.533 8 8 0 1 0 2.837 6.804.989.989 0 0 1 1.079-.914 1 1 0 0 1 .913 1.079A10.053 10.053 0 0 1 11 22zm2.254-6.842 9.452-9.451a1 1 0 1 0-1.414-1.414l-9.452 9.451a.988.988 0 0 1-.753.292.975.975 0 0 1-.704-.335l-2.598-3.318a1 1 0 0 0-1.574 1.234l2.616 3.34a3.007 3.007 0 0 0 2.17 1.077q.067.003.134.003a3.007 3.007 0 0 0 2.123-.879z" data-name="Layer 2" fill="#071952" opacity="1" data-original="#000000"></path></g></svg>