<svg xmlns="http://www.w3.org/2000/svg" version="1.1" xmlns:xlink="http://www.w3.org/1999/xlink" width="512" height="512" x="0" y="0" viewBox="0 0 512.056 512.056" style="enable-background:new 0 0 512 512" xml:space="preserve" class=""><g><path d="m295.672 414.256-25.364 75.736c-4.589 13.701-23.97 13.701-28.559 0l-25.364-75.736c-51.459-11.041-95.839-43.3-122.471-88.331l-78.962-.711c-14.45-.13-20.439-18.562-8.825-27.161l62.86-46.541a190.021 190.021 0 0 1-1.194-21.305c0-47.051 17.359-91.392 48.015-125.585L92.755 31.437c-4.341-13.782 11.338-25.174 23.105-16.786l62.063 44.244c24.281-11.089 50.787-16.923 78.105-16.923 27.318 0 53.824 5.834 78.105 16.923l62.063-44.244c11.767-8.388 27.446 3.004 23.105 16.786l-23.053 73.185c30.656 34.193 48.015 78.535 48.015 125.585 0 7.157-.4 14.267-1.194 21.305l62.86 46.541c11.613 8.598 5.625 27.03-8.825 27.161l-78.962.711c-26.632 45.031-71.012 77.289-122.47 88.331zm-86.778-117.513h94.268l29.13-89.654-76.264-55.41-76.264 55.41 29.13 89.654zm-31.729-.187-22.96-70.665-94.02 69.611 116.98 1.054zm116.014 30.305h-74.301l37.151 110.929 37.15-110.929zm64.672-100.97-22.96 70.665 116.98-1.053-94.02-69.612zm-76.044-92.709 60.111 43.673 35.147-111.58-95.258 67.907zm-111.669 43.673 60.111-43.673-95.258-67.907 35.147 111.58zm16.945 149.908-56.676-.51c18.95 24.754 44.87 43.491 74.459 53.609l-17.783-53.099zM97.91 230.097l46.562-34.474-17.773-56.422c-18.508 26.24-28.766 57.745-28.789 90.896zm158.118-115.524 48.826-34.807c-15.588-5.055-32.012-7.677-48.826-7.677s-33.238 2.622-48.826 7.677l48.826 34.807zm111.555 81.05 46.562 34.474c-.023-33.151-10.281-64.656-28.79-90.896l-17.772 56.422zm14.066 130.63-56.676.51-17.783 53.099c29.589-10.118 55.509-28.855 74.459-53.609z" fill="#071952" opacity="1" data-original="#000000"></path></g></svg>