<svg xmlns="http://www.w3.org/2000/svg" version="1.1" xmlns:xlink="http://www.w3.org/1999/xlink" width="512" height="512" x="0" y="0" viewBox="0 0 512.001 512.001" style="enable-background:new 0 0 512 512" xml:space="preserve" class=""><g><path d="M312.47 369.975c-10.807 7.864-21.116 8.395-27.276 7.709-15.68-1.753-29.748-13.574-37.631-31.62-5.29-12.109-8.104-28.372-4.929-45.535-24.917 13.338-56.887 43.622-56.887 111.224 0 38.738 31.515 70.252 70.252 70.252s70.252-31.515 70.252-70.252c.001-15.135-4.912-29.776-13.781-41.778z" fill="#071952" opacity="1" data-original="#000000" class=""></path><path d="m465.097 290.749-2.262-40.346-24.63 32.035c-1.961 2.55-6.137 7.061-11.466 11.173a159.628 159.628 0 0 0 5.23-23.715c4.302-30.4 1.623-77.058-35.558-126.701l-15.601-20.83-10.222 23.932c-11.792 27.606-30.871 41.455-48.603 35.283-13.651-4.75-24.746-20.373-30.439-42.866-5.31-20.979-8.396-57.897 7.065-114.636L305.169 0l-24.345 5.484c-82.12 18.5-137.457 76.817-160.03 168.647-9.489 38.602-11.276 75.173-11.01 99.908-19.404-15.687-29.093-29.451-29.346-29.815L61.955 217.07l-8.419 31.794a210.014 210.014 0 0 0-6.972 53.732c0 114.62 92.556 208.012 206.852 209.404-54.105-1.375-97.695-45.816-97.695-100.247 0-70.168 30.144-107.552 55.432-126.557 27.593-20.738 55.42-24.423 56.591-24.57l34.73-4.352-20.784 28.164c-13.097 17.747-12.001 37.262-6.609 49.607 3.901 8.929 9.567 13.364 13.45 13.798 4.897.557 9.823-5.063 12.321-8.455l9.809-13.326 12.313 11.054c21.165 19.004 33.305 46.209 33.305 74.637 0 54.43-43.59 98.871-97.695 100.247 114.296-1.391 206.852-94.784 206.852-209.404.001-3.834-.113-7.821-.339-11.847z" fill="#071952" opacity="1" data-original="#000000" class=""></path></g></svg>