<svg xmlns="http://www.w3.org/2000/svg" version="1.1" xmlns:xlink="http://www.w3.org/1999/xlink" width="512" height="512" x="0" y="0" viewBox="0 0 24 24" style="enable-background:new 0 0 512 512" xml:space="preserve" class=""><g><path d="m4.863 2.855 1.55-.442.442-1.55a1.191 1.191 0 0 1 2.29 0l.442 1.55 1.55.442a1.191 1.191 0 0 1 0 2.29l-1.55.442-.442 1.55a1.191 1.191 0 0 1-2.29 0l-.442-1.55-1.55-.442a1.191 1.191 0 0 1 0-2.29zm18.274 12-1.55-.442-.442-1.55a1.191 1.191 0 0 0-2.29 0l-.442 1.55-1.55.442a1.191 1.191 0 0 0 0 2.29l1.55.442.442 1.55a1.191 1.191 0 0 0 2.29 0l.442-1.55 1.55-.442a1.191 1.191 0 0 0 0-2.29zM17.755 4.5l1.356.387.389 1.357a1.042 1.042 0 0 0 2 0l.387-1.355 1.358-.389a1.042 1.042 0 0 0 0-2l-1.356-.387L21.5.755a1.042 1.042 0 0 0-2 0l-.387 1.356-1.358.389a1.042 1.042 0 0 0 0 2zm-.6 8.148L6.686 22.864a3.926 3.926 0 0 1-5.537-.013 3.929 3.929 0 0 1 0-5.55L11.673 7.033a3.923 3.923 0 0 1 6.664 2.832 3.894 3.894 0 0 1-1.184 2.785zm-6.18 1.839-1.309-1.305-6.409 6.253a.921.921 0 0 0 .014 1.294.943.943 0 0 0 1.306 0zm4.364-4.642a.924.924 0 0 0-1.569-.667l-1.955 1.907 1.307 1.307 1.937-1.892a.92.92 0 0 0 .278-.653z" fill="#ffffff" opacity="1" data-original="#000000"></path></g></svg>