<svg xmlns="http://www.w3.org/2000/svg" version="1.1" xmlns:xlink="http://www.w3.org/1999/xlink" width="512" height="512" x="0" y="0" viewBox="0 0 4335 4335" style="enable-background:new 0 0 512 512" xml:space="preserve" fill-rule="evenodd" class=""><g><path fill="#071952" d="M183 4202s410-718 882-1204c427-440 435-108 915-347-130-76-188-166-188-166l438 17c205-138 419-310 626-496-140-78-203-175-203-175l375 14c332-319 628-663 806-942-115-73-167-153-167-153l252 10c272-472 346-579 211-590-93-8-359-102-882 94l-182 445s-83-128-77-333c-214 104-462 252-747 461-376 275-641 511-830 714l-182 445s-35-54-58-148c-199 292-228 500-256 659l-52 301L79 4120s-69 247 102 82z" opacity="1" data-original="#2b2a29" class=""></path></g></svg>